<svg width="48" height="48" viewBox="0 0 48 48" fill="none" xmlns="http://www.w3.org/2000/svg">
<rect width="48" height="48" rx="8" fill="#779EA5"/>
<path d="M15.7559 19.6094V30H13.4043V21.7422H9.13867V30H6.78711V19.6094H15.7559ZM30.9043 19.6094V30H28.6074V22.6719L25.9277 30H23.5215L20.8418 22.6719V30H18.5449V19.6094H21.9902L24.752 27.1289L27.4863 19.6094H30.9043ZM39.9824 19.6094H42.4707L39.6543 27.2383C38.9434 29.207 37.8223 30.1367 36.1816 30.1367C34.459 30.1367 33.3105 29.0156 33.3105 27.375C33.3105 26.5 33.6387 25.7344 34.2402 25.1875H35.252L32.3809 19.6094H34.9512L37.6035 25.1875H38.1777L39.9824 19.6094ZM36.2363 28.3047C36.8105 28.3047 37.2207 27.9766 37.4668 27.3477L37.6582 26.8008H35.498C35.3887 26.9648 35.334 27.1562 35.334 27.375C35.334 27.9492 35.6621 28.3047 36.2363 28.3047Z" fill="#2B4546"/>
</svg>
